{"asset":{"version":"2.0","generator":"THREE.GLTFExporter"},"scenes":[{"nodes":[0],"name":"AuxScene"}],"scene":0,"nodes":[{"mesh":0}],"bufferViews":[{"buffer":0,"byteOffset":0,"byteLength":2700,"target":34962,"byteStride":12},{"buffer":0,"byteOffset":2700,"byteLength":2700,"target":34962,"byteStride":12}],"buffers":[{"byteLength":5400,"uri":"data:application/octet-stream;base64,"}],"accessors":[{"bufferView":0,"componentType":5126,"count":225,"max":[8.44996452331543,4.099999904632568,8.44996452331543],"min":[-8.450035095214844,0.10000000149011612,-8.450035095214844],"type":"VEC3"},{"bufferView":1,"componentType":5126,"count":225,"max":[0.5686948299407959,1,0.1658693253993988],"min":[-0.1961161345243454,0.8056510090827942,0],"type":"VEC3"}],"materials":[{"pbrMetallicRoughness":{"baseColorFactor":[0.5019607843137255,0.5019607843137255,0.5019607843137255,1],"metallicFactor":0,"roughnessFactor":1}}],"meshes":[{"primitives":[{"mode":4,"attributes":{"POSITION":0,"NORMAL":1},"material":0}]}]}