{"accessors" : [{"bufferView" : 0, "byteOffset" : 0, "componentType" : 5123, "count" : 1086, "type" : "SCALAR", "max" : [1085], "min" : [0]}, {"bufferView" : 1, "byteOffset" : 0, "componentType" : 5126, "count" : 1086, "type" : "VEC3", "max" : [1.448840618133545, 1.4452886581420898, 1.710705280303955], "min" : [-1.4471536874771118, -1.4410837888717651, -4.897191047668457], "name" : "POSITION"}, {"bufferView" : 1, "byteOffset" : 12, "componentType" : 5126, "count" : 1086, "type" : "VEC3", "max" : [1.0000044107437134, 1.0000044107437134, 1.0000044107437134], "min" : [-1.0000044107437134, -1.0000044107437134, -1.0000044107437134], "name" : "NORMAL"}, {"bufferView" : 1, "byteOffset" : 24, "componentType" : 5126, "count" : 1086, "type" : "VEC2", "max" : [0.9712378978729248, -0.23384684324264526], "min" : [0.21125318109989166, -0.9973961114883423], "name" : "TEXCOORD_0"}, {"bufferView" : 0, "byteOffset" : 2172, "componentType" : 5123, "count" : 204, "type" : "SCALAR", "max" : [203], "min" : [0]}, {"bufferView" : 2, "byteOffset" : 0, "componentType" : 5126, "count" : 204, "type" : "VEC3", "max" : [0.15741141140460968, 0.18186278641223907, 2.251028537750244], "min" : [-0.15520025789737701, -0.17911003530025482, 1.7075148820877075], "name" : "POSITION"}, {"bufferView" : 2, "byteOffset" : 12, "componentType" : 5126, "count" : 204, "type" : "VEC3", "max" : [1.0000042915344238, 0.8660294413566589, 1.0000044107437134], "min" : [-1.0000042915344238, -0.8660292029380798, -1.0000044107437134], "name" : "NORMAL"}, {"bufferView" : 2, "byteOffset" : 24, "componentType" : 5126, "count" : 204, "type" : "VEC2", "max" : [0.8367518782615662, -0.1855466365814209], "min" : [0.5709459185600281, -0.8406422138214111], "name" : "TEXCOORD_0"}, {"bufferView" : 0, "byteOffset" : 2580, "componentType" : 5123, "count" : 240, "type" : "SCALAR", "max" : [239], "min" : [0]}, {"bufferView" : 3, "byteOffset" : 0, "componentType" : 5126, "count" : 240, "type" : "VEC3", "max" : [1.8277496099472046, 1.8280205726623535, 3.4879684448242188], "min" : [-1.8270567655563354, -1.8267858028411865, 1.328506588935852], "name" : "POSITION"}, {"bufferView" : 3, "byteOffset" : 12, "componentType" : 5126, "count" : 240, "type" : "VEC3", "max" : [0.8963032364845276, 0.8963031768798828, 1.0000044107437134], "min" : [-0.8963031768798828, -0.8963031768798828, -1.0000044107437134], "name" : "NORMAL"}, {"bufferView" : 3, "byteOffset" : 24, "componentType" : 5126, "count" : 240, "type" : "VEC2", "max" : [0.950153112411499, -0.0026037991046905518], "min" : [0.002603806322440505, -0.8404399752616882], "name" : "TEXCOORD_0"}], "asset" : {"generator" : "Aspose.3D 22.1", "version" : "2.0"}, "buffers" : [{"uri" : "data:application/octet-stream;base64,", "byteLength" : 52036}], "bufferViews" : [{"buffer" : 0, "byteOffset" : 0, "byteLength" : 3060, "target" : 34963}, {"buffer" : 0, "byteOffset" : 3064, "byteLength" : 34752, "byteStride" : 32, "target" : 34962}, {"buffer" : 0, "byteOffset" : 37820, "byteLength" : 6528, "byteStride" : 32, "target" : 34962}, {"buffer" : 0, "byteOffset" : 44352, "byteLength" : 7680, "byteStride" : 32, "target" : 34962}], "materials" : [{"name" : "", "pbrMetallicRoughness" : {"baseColorFactor" : [0.2600274980068207, 0.2600274980068207, 0.2600274980068207, 1], "metallicFactor" : 0, "roughnessFactor" : 0}, "emissiveFactor" : [0, 0, 0], "alphaMode" : "OPAQUE", "doubleSided" : false}, {"name" : "", "pbrMetallicRoughness" : {"baseColorFactor" : [0.6353368163108826, 0.6353368163108826, 0.6353368163108826, 1], "metallicFactor" : 0, "roughnessFactor" : 0}, "emissiveFactor" : [0, 0, 0], "alphaMode" : "OPAQUE", "doubleSided" : false}, {"name" : "", "pbrMetallicRoughness" : {"baseColorFactor" : [0.34115174412727356, 0.026578301563858986, 0.013850972056388855, 1], "metallicFactor" : 0, "roughnessFactor" : 0}, "emissiveFactor" : [0, 0, 0], "alphaMode" : "OPAQUE", "doubleSided" : false}], "meshes" : [{"primitives" : [{"attributes" : {"POSITION" : 1, "NORMAL" : 2, "TEXCOORD_0" : 3}, "indices" : 0, "material" : 0, "mode" : 4}, {"attributes" : {"POSITION" : 5, "NORMAL" : 6, "TEXCOORD_0" : 7}, "indices" : 4, "material" : 1, "mode" : 4}, {"attributes" : {"POSITION" : 9, "NORMAL" : 10, "TEXCOORD_0" : 11}, "indices" : 8, "material" : 2, "mode" : 4}], "name" : "Cylinder"}], "nodes" : [{"matrix" : [100, 0, 0, 0, 0, -1.6292067961387602E-05, -99.99999999999868, 0, 0, 99.99999999999868, -1.6292067961387602E-05, 0, 0, 0, 0, 1], "mesh" : 0, "name" : "Lamp A"}], "scene" : 0, "scenes" : [{"nodes" : [0]}]}