{"accessors" : [{"bufferView" : 0, "byteOffset" : 0, "componentType" : 5123, "count" : 168, "type" : "SCALAR", "max" : [167], "min" : [0]}, {"bufferView" : 1, "byteOffset" : 0, "componentType" : 5126, "count" : 168, "type" : "VEC3", "max" : [1.7904397249221802, 2.1150412559509277, 0.6348427534103394], "min" : [-1.8067017793655396, -0.9352886080741882, -3.737757444381714], "name" : "POSITION"}, {"bufferView" : 1, "byteOffset" : 12, "componentType" : 5126, "count" : 168, "type" : "VEC3", "max" : [1.0000044107437134, 1.0000042915344238, 1.0000044107437134], "min" : [-1.0000044107437134, -1.0000044107437134, -1.0000044107437134], "name" : "NORMAL"}, {"bufferView" : 1, "byteOffset" : 24, "componentType" : 5126, "count" : 168, "type" : "VEC2", "max" : [0.6546614170074463, -0.004053935408592224], "min" : [0.004053950309753418, -0.7278981804847717], "name" : "TEXCOORD_0"}, {"bufferView" : 0, "byteOffset" : 336, "componentType" : 5123, "count" : 2256, "type" : "SCALAR", "max" : [2255], "min" : [0]}, {"bufferView" : 2, "byteOffset" : 0, "componentType" : 5126, "count" : 2256, "type" : "VEC3", "max" : [1.4216704368591309, 1.6982622146606445, 0.7829629182815552], "min" : [-1.408923864364624, -0.5238299369812012, 0.6563748121261597], "name" : "POSITION"}, {"bufferView" : 2, "byteOffset" : 12, "componentType" : 5126, "count" : 2256, "type" : "VEC3", "max" : [0.9659304022789001, 0.965930163860321, 1.0000044107437134], "min" : [-0.9659302234649658, -0.9659302234649658, -1.0000044107437134], "name" : "NORMAL"}, {"bufferView" : 2, "byteOffset" : 24, "componentType" : 5126, "count" : 2256, "type" : "VEC2", "max" : [0.9959460496902466, -0.16812026500701904], "min" : [0.004053950309753418, -0.9950681924819946], "name" : "TEXCOORD_0"}, {"bufferView" : 0, "byteOffset" : 4848, "componentType" : 5123, "count" : 138, "type" : "SCALAR", "max" : [137], "min" : [0]}, {"bufferView" : 3, "byteOffset" : 0, "componentType" : 5126, "count" : 138, "type" : "VEC3", "max" : [1.5529143810272217, 1.790893793106079, 0.7190731763839722], "min" : [-1.569176435470581, -1.0765111446380615, -3.428015947341919], "name" : "POSITION"}, {"bufferView" : 3, "byteOffset" : 12, "componentType" : 5126, "count" : 138, "type" : "VEC3", "max" : [1.0000044107437134, 1.0000044107437134, 1.0000044107437134], "min" : [-1.0000044107437134, -1.0000044107437134, -1.0000044107437134], "name" : "NORMAL"}, {"bufferView" : 3, "byteOffset" : 24, "componentType" : 5126, "count" : 138, "type" : "VEC2", "max" : [0.9706427454948425, -0.004053950309753418], "min" : [0.004053935408592224, -0.984061062335968], "name" : "TEXCOORD_0"}, {"bufferView" : 0, "byteOffset" : 5124, "componentType" : 5123, "count" : 972, "type" : "SCALAR", "max" : [971], "min" : [0]}, {"bufferView" : 4, "byteOffset" : 0, "componentType" : 5126, "count" : 972, "type" : "VEC3", "max" : [1.5529143810272217, 0.8206078410148621, 0.2591930627822876], "min" : [-1.569176435470581, -1.1775968074798584, -2.4990060329437256], "name" : "POSITION"}, {"bufferView" : 4, "byteOffset" : 12, "componentType" : 5126, "count" : 972, "type" : "VEC3", "max" : [1.0000044107437134, 1.0000044107437134, 1.0000044107437134], "min" : [-1.0000044107437134, -1.0000044107437134, -1.0000044107437134], "name" : "NORMAL"}, {"bufferView" : 4, "byteOffset" : 24, "componentType" : 5126, "count" : 972, "type" : "VEC2", "max" : [0.9915544986724854, -0.004053950309753418], "min" : [0.15579035878181458, -0.9922983050346375], "name" : "TEXCOORD_0"}, {"bufferView" : 0, "byteOffset" : 7068, "componentType" : 5123, "count" : 24, "type" : "SCALAR", "max" : [23], "min" : [0]}, {"bufferView" : 5, "byteOffset" : 0, "componentType" : 5126, "count" : 24, "type" : "VEC3", "max" : [1.4392714500427246, 0.15553396940231323, 2.7921361923217773], "min" : [-1.4617599248886108, 0.06673312187194824, 0.06634879112243652], "name" : "POSITION"}, {"bufferView" : 5, "byteOffset" : 12, "componentType" : 5126, "count" : 24, "type" : "VEC3", "max" : [0, 1.0000044107437134, 1.1477560235562123E-08], "min" : [0, -1.0000042915344238, -8.329966050268922E-09], "name" : "NORMAL"}, {"bufferView" : 5, "byteOffset" : 24, "componentType" : 5126, "count" : 24, "type" : "VEC2", "max" : [0.887810230255127, -0.06757700443267822], "min" : [0.47258204221725464, -0.8639736771583557], "name" : "TEXCOORD_0"}, {"bufferView" : 0, "byteOffset" : 7116, "componentType" : 5123, "count" : 480, "type" : "SCALAR", "max" : [479], "min" : [0]}, {"bufferView" : 6, "byteOffset" : 0, "componentType" : 5126, "count" : 480, "type" : "VEC3", "max" : [1.6044138669967651, 0.20920652151107788, 3.18459153175354], "min" : [-1.6269023418426514, -0.11085939407348633, -0.06327986717224121], "name" : "POSITION"}, {"bufferView" : 6, "byteOffset" : 12, "componentType" : 5126, "count" : 480, "type" : "VEC3", "max" : [1.0000044107437134, 1.0000044107437134, 1.0000044107437134], "min" : [-1.0000044107437134, -1.0000044107437134, -1.0000044107437134], "name" : "NORMAL"}, {"bufferView" : 6, "byteOffset" : 24, "componentType" : 5126, "count" : 480, "type" : "VEC2", "max" : [0.9855702519416809, -0.014429688453674316], "min" : [0.014429688453674316, -0.947834849357605], "name" : "TEXCOORD_0"}], "asset" : {"generator" : "Aspose.3D 22.1", "version" : "2.0"}, "buffers" : [{"uri" : "data:application/octet-stream;base64,", "byteLength" : 137320}], "bufferViews" : [{"buffer" : 0, "byteOffset" : 0, "byteLength" : 8076, "target" : 34963}, {"buffer" : 0, "byteOffset" : 8080, "byteLength" : 5376, "byteStride" : 32, "target" : 34962}, {"buffer" : 0, "byteOffset" : 13460, "byteLength" : 72192, "byteStride" : 32, "target" : 34962}, {"buffer" : 0, "byteOffset" : 85656, "byteLength" : 4416, "byteStride" : 32, "target" : 34962}, {"buffer" : 0, "byteOffset" : 90076, "byteLength" : 31104, "byteStride" : 32, "target" : 34962}, {"buffer" : 0, "byteOffset" : 121184, "byteLength" : 768, "byteStride" : 32, "target" : 34962}, {"buffer" : 0, "byteOffset" : 121956, "byteLength" : 15360, "byteStride" : 32, "target" : 34962}], "materials" : [{"name" : "", "pbrMetallicRoughness" : {"baseColorFactor" : [0.6353368163108826, 0.6353368163108826, 0.6353368163108826, 1], "metallicFactor" : 0, "roughnessFactor" : 0}, "emissiveFactor" : [0, 0, 0], "alphaMode" : "OPAQUE", "doubleSided" : false}, {"name" : "", "pbrMetallicRoughness" : {"baseColorFactor" : [0.34115174412727356, 0.026578301563858986, 0.013850972056388855, 1], "metallicFactor" : 0, "roughnessFactor" : 0}, "emissiveFactor" : [0, 0, 0], "alphaMode" : "OPAQUE", "doubleSided" : false}, {"name" : "", "pbrMetallicRoughness" : {"baseColorFactor" : [0.08696522563695908, 0.08696522563695908, 0.08696522563695908, 1], "metallicFactor" : 0, "roughnessFactor" : 0}, "emissiveFactor" : [0, 0, 0], "alphaMode" : "OPAQUE", "doubleSided" : false}, {"name" : "", "pbrMetallicRoughness" : {"baseColorFactor" : [0.2600274980068207, 0.2600274980068207, 0.2600274980068207, 1], "metallicFactor" : 0, "roughnessFactor" : 0}, "emissiveFactor" : [0, 0, 0], "alphaMode" : "OPAQUE", "doubleSided" : false}, {"name" : "", "pbrMetallicRoughness" : {"baseColorFactor" : [0.04154860973358154, 0.23032249510288239, 0.23441897332668304, 1], "metallicFactor" : 0, "roughnessFactor" : 0}, "emissiveFactor" : [0, 0, 0], "alphaMode" : "OPAQUE", "doubleSided" : false}, {"name" : "", "pbrMetallicRoughness" : {"baseColorFactor" : [0.2600274980068207, 0.2600274980068207, 0.2600274980068207, 1], "metallicFactor" : 0, "roughnessFactor" : 0}, "emissiveFactor" : [0, 0, 0], "alphaMode" : "OPAQUE", "doubleSided" : false}], "meshes" : [{"primitives" : [{"attributes" : {"POSITION" : 1, "NORMAL" : 2, "TEXCOORD_0" : 3}, "indices" : 0, "material" : 0, "mode" : 4}, {"attributes" : {"POSITION" : 5, "NORMAL" : 6, "TEXCOORD_0" : 7}, "indices" : 4, "material" : 1, "mode" : 4}, {"attributes" : {"POSITION" : 9, "NORMAL" : 10, "TEXCOORD_0" : 11}, "indices" : 8, "material" : 2, "mode" : 4}, {"attributes" : {"POSITION" : 13, "NORMAL" : 14, "TEXCOORD_0" : 15}, "indices" : 12, "material" : 3, "mode" : 4}], "name" : "Cube.027"}, {"primitives" : [{"attributes" : {"POSITION" : 17, "NORMAL" : 18, "TEXCOORD_0" : 19}, "indices" : 16, "material" : 4, "mode" : 4}, {"attributes" : {"POSITION" : 21, "NORMAL" : 22, "TEXCOORD_0" : 23}, "indices" : 20, "material" : 5, "mode" : 4}], "name" : "Cube.137"}], "nodes" : [{"matrix" : [100, 0, 0, 0, 0, -1.6292067961387602E-05, -99.99999999999868, 0, 0, 99.99999999999868, -1.6292067961387602E-05, 0, 0, 0, 0, 1], "mesh" : 0, "name" : "Oven"}, {"matrix" : [100, 0, 0, 0, 0, -1.6292067961387602E-05, -99.99999999999868, 0, 0, 99.99999999999868, -1.6292067961387602E-05, 0, 0.07366444915533066, -336.4736022949219, 114.44951629638672, 1], "mesh" : 1, "name" : "Oven.001"}], "scene" : 0, "scenes" : [{"nodes" : [0, 1]}]}