{"accessors" : [{"bufferView" : 0, "byteOffset" : 0, "componentType" : 5123, "count" : 5220, "type" : "SCALAR", "max" : [5219], "min" : [0]}, {"bufferView" : 1, "byteOffset" : 0, "componentType" : 5126, "count" : 5220, "type" : "VEC3", "max" : [6.454339981079102, 1.807565689086914, 2.1393015384674072], "min" : [-6.400463104248047, -2.327472686767578, -1.532413125038147], "name" : "POSITION"}, {"bufferView" : 1, "byteOffset" : 12, "componentType" : 5126, "count" : 5220, "type" : "VEC3", "max" : [1.0000044107437134, 1.0000044107437134, 1.0000044107437134], "min" : [-1.0000044107437134, -1.0000044107437134, -1.0000044107437134], "name" : "NORMAL"}, {"bufferView" : 1, "byteOffset" : 24, "componentType" : 5126, "count" : 5220, "type" : "VEC2", "max" : [0.9804169535636902, -0.00318044051527977], "min" : [0.0031804442405700684, -0.9968194961547852], "name" : "TEXCOORD_0"}], "asset" : {"generator" : "Aspose.3D 22.1", "version" : "2.0"}, "buffers" : [{"uri" : "data:application/octet-stream;base64,", "byteLength" : 177488}], "bufferViews" : [{"buffer" : 0, "byteOffset" : 0, "byteLength" : 10440, "target" : 34963}, {"buffer" : 0, "byteOffset" : 10444, "byteLength" : 167040, "byteStride" : 32, "target" : 34962}], "materials" : [{"name" : "", "pbrMetallicRoughness" : {"baseColorFactor" : [0.07112232595682144, 0.11088339984416962, 0.26890936493873596, 1], "metallicFactor" : 0, "roughnessFactor" : 0}, "emissiveFactor" : [0, 0, 0], "alphaMode" : "OPAQUE", "doubleSided" : false}], "meshes" : [{"primitives" : [{"attributes" : {"POSITION" : 1, "NORMAL" : 2, "TEXCOORD_0" : 3}, "indices" : 0, "material" : 0, "mode" : 4}], "name" : "Cube.042"}], "nodes" : [{"matrix" : [100, 0, 0, 0, 0, -1.6292067961387602E-05, -99.99999999999868, 0, 0, 99.99999999999868, -1.6292067961387602E-05, 0, 0, 0, 0, 1], "mesh" : 0, "name" : "Sofa D"}], "scene" : 0, "scenes" : [{"nodes" : [0]}]}