{"accessors" : [{"bufferView" : 0, "byteOffset" : 0, "componentType" : 5123, "count" : 282, "type" : "SCALAR", "max" : [281], "min" : [0]}, {"bufferView" : 1, "byteOffset" : 0, "componentType" : 5126, "count" : 282, "type" : "VEC3", "max" : [1.5452167987823486, 3.012721061706543, 1.5008761882781982], "min" : [-1.505113124847412, -0.32919859886169434, -2.8717236518859863], "name" : "POSITION"}, {"bufferView" : 1, "byteOffset" : 12, "componentType" : 5126, "count" : 282, "type" : "VEC3", "max" : [1.0000044107437134, 1.0000044107437134, 1.0000044107437134], "min" : [-1.0000044107437134, -1.0000044107437134, -1.0000044107437134], "name" : "NORMAL"}, {"bufferView" : 1, "byteOffset" : 24, "componentType" : 5126, "count" : 282, "type" : "VEC2", "max" : [0.8044267892837524, -0.0025919675827026367], "min" : [0.0025919675827026367, -0.7600085735321045], "name" : "TEXCOORD_0"}, {"bufferView" : 0, "byteOffset" : 564, "componentType" : 5123, "count" : 606, "type" : "SCALAR", "max" : [605], "min" : [0]}, {"bufferView" : 2, "byteOffset" : 0, "componentType" : 5126, "count" : 606, "type" : "VEC3", "max" : [1.351562261581421, 1.1904674768447876, 1.479680061340332], "min" : [-1.3786975145339966, -0.3291984796524048, -1.9855915307998657], "name" : "POSITION"}, {"bufferView" : 2, "byteOffset" : 12, "componentType" : 5126, "count" : 606, "type" : "VEC3", "max" : [1.0000044107437134, 0.9998346567153931, 0.9998346567153931], "min" : [-1.0000044107437134, -1.0000044107437134, -0.9998346567153931], "name" : "NORMAL"}, {"bufferView" : 2, "byteOffset" : 24, "componentType" : 5126, "count" : 606, "type" : "VEC2", "max" : [0.9974079728126526, -0.0025919973850250244], "min" : [0.32063716650009155, -0.9778478741645813], "name" : "TEXCOORD_0"}, {"bufferView" : 0, "byteOffset" : 1776, "componentType" : 5123, "count" : 60, "type" : "SCALAR", "max" : [59], "min" : [0]}, {"bufferView" : 3, "byteOffset" : 0, "componentType" : 5126, "count" : 60, "type" : "VEC3", "max" : [1.1251112222671509, -0.3941582441329956, 0.3977397680282593], "min" : [-1.0850211381912231, -0.44762682914733887, -1.8123937845230103], "name" : "POSITION"}, {"bufferView" : 3, "byteOffset" : 12, "componentType" : 5126, "count" : 60, "type" : "VEC3", "max" : [0, 1.0000044107437134, 2.0337331818609528E-08], "min" : [0, -1.0000044107437134, 8.903921155933858E-09], "name" : "NORMAL"}, {"bufferView" : 3, "byteOffset" : 24, "componentType" : 5126, "count" : 60, "type" : "VEC2", "max" : [0.9574809670448303, -0.6709019541740417], "min" : [0.2852265536785126, -0.9450265169143677], "name" : "TEXCOORD_0"}, {"bufferView" : 0, "byteOffset" : 1896, "componentType" : 5123, "count" : 468, "type" : "SCALAR", "max" : [467], "min" : [0]}, {"bufferView" : 4, "byteOffset" : 0, "componentType" : 5126, "count" : 468, "type" : "VEC3", "max" : [1.4444489479064941, -0.2859879732131958, 0.7170774936676025], "min" : [-1.404358983039856, -0.7859597206115723, -2.1317315101623535], "name" : "POSITION"}, {"bufferView" : 4, "byteOffset" : 12, "componentType" : 5126, "count" : 468, "type" : "VEC3", "max" : [0.9659302234649658, 1.0000044107437134, 0.9659297466278076], "min" : [-0.9659301042556763, -1.0000044107437134, -0.965930163860321], "name" : "NORMAL"}, {"bufferView" : 4, "byteOffset" : 24, "componentType" : 5126, "count" : 468, "type" : "VEC2", "max" : [0.9904822707176208, -0.0025919675827026367], "min" : [0.0025919675827026367, -0.974181056022644], "name" : "TEXCOORD_0"}], "asset" : {"generator" : "Aspose.3D 22.1", "version" : "2.0"}, "buffers" : [{"uri" : "data:application/octet-stream;base64,", "byteLength" : 48164}], "bufferViews" : [{"buffer" : 0, "byteOffset" : 0, "byteLength" : 2832, "target" : 34963}, {"buffer" : 0, "byteOffset" : 2836, "byteLength" : 9024, "byteStride" : 32, "target" : 34962}, {"buffer" : 0, "byteOffset" : 11864, "byteLength" : 19392, "byteStride" : 32, "target" : 34962}, {"buffer" : 0, "byteOffset" : 31260, "byteLength" : 1920, "byteStride" : 32, "target" : 34962}, {"buffer" : 0, "byteOffset" : 33184, "byteLength" : 14976, "byteStride" : 32, "target" : 34962}], "materials" : [{"name" : "", "pbrMetallicRoughness" : {"baseColorFactor" : [0.6353368163108826, 0.6353368163108826, 0.6353368163108826, 1], "metallicFactor" : 0, "roughnessFactor" : 0}, "emissiveFactor" : [0, 0, 0], "alphaMode" : "OPAQUE", "doubleSided" : false}, {"name" : "", "pbrMetallicRoughness" : {"baseColorFactor" : [0.2600274980068207, 0.2600274980068207, 0.2600274980068207, 1], "metallicFactor" : 0, "roughnessFactor" : 0}, "emissiveFactor" : [0, 0, 0], "alphaMode" : "OPAQUE", "doubleSided" : false}, {"name" : "", "pbrMetallicRoughness" : {"baseColorFactor" : [0.04154860973358154, 0.23032249510288239, 0.23441897332668304, 1], "metallicFactor" : 0, "roughnessFactor" : 0}, "emissiveFactor" : [0, 0, 0], "alphaMode" : "OPAQUE", "doubleSided" : false}, {"name" : "", "pbrMetallicRoughness" : {"baseColorFactor" : [0.2600274980068207, 0.2600274980068207, 0.2600274980068207, 1], "metallicFactor" : 0, "roughnessFactor" : 0}, "emissiveFactor" : [0, 0, 0], "alphaMode" : "OPAQUE", "doubleSided" : false}], "meshes" : [{"primitives" : [{"attributes" : {"POSITION" : 1, "NORMAL" : 2, "TEXCOORD_0" : 3}, "indices" : 0, "material" : 0, "mode" : 4}, {"attributes" : {"POSITION" : 5, "NORMAL" : 6, "TEXCOORD_0" : 7}, "indices" : 4, "material" : 1, "mode" : 4}], "name" : "Cube.052"}, {"primitives" : [{"attributes" : {"POSITION" : 9, "NORMAL" : 10, "TEXCOORD_0" : 11}, "indices" : 8, "material" : 2, "mode" : 4}, {"attributes" : {"POSITION" : 13, "NORMAL" : 14, "TEXCOORD_0" : 15}, "indices" : 12, "material" : 3, "mode" : 4}], "name" : "Cube.131"}], "nodes" : [{"matrix" : [100, 0, 0, 0, 0, -1.6292067961387602E-05, -99.99999999999868, 0, 0, 99.99999999999868, -1.6292067961387602E-05, 0, 0, 0, 0, 1], "mesh" : 0, "name" : "Washing machine"}, {"matrix" : [100, 0, 0, 0, 0, -1.6292067961387602E-05, -99.99999999999868, 0, 0, 99.99999999999868, -1.6292067961387602E-05, 0, 0, 0, 0, 1], "mesh" : 1, "name" : "Washing machine.001"}], "scene" : 0, "scenes" : [{"nodes" : [0, 1]}]}