{"accessors" : [{"bufferView" : 0, "byteOffset" : 0, "componentType" : 5123, "count" : 1428, "type" : "SCALAR", "max" : [1427], "min" : [0]}, {"bufferView" : 1, "byteOffset" : 0, "componentType" : 5126, "count" : 1428, "type" : "VEC3", "max" : [2.3789050579071045, 4.6816229820251465, 2.1457061767578125], "min" : [-2.3918838500976562, -6.4162750244140625, -1.4235202074050903], "name" : "POSITION"}, {"bufferView" : 1, "byteOffset" : 12, "componentType" : 5126, "count" : 1428, "type" : "VEC3", "max" : [1.0000044107437134, 1.0000044107437134, 1.0000044107437134], "min" : [-1.0000044107437134, -1.0000044107437134, -1.0000044107437134], "name" : "NORMAL"}, {"bufferView" : 1, "byteOffset" : 24, "componentType" : 5126, "count" : 1428, "type" : "VEC2", "max" : [0.9773406982421875, -0.0030263960361480713], "min" : [0.0030263662338256836, -0.9719035625457764], "name" : "TEXCOORD_0"}, {"bufferView" : 0, "byteOffset" : 2856, "componentType" : 5123, "count" : 1212, "type" : "SCALAR", "max" : [1211], "min" : [0]}, {"bufferView" : 2, "byteOffset" : 0, "componentType" : 5126, "count" : 1212, "type" : "VEC3", "max" : [2.473830223083496, 4.319197177886963, 1.0757625102996826], "min" : [-2.4868087768554688, -6.03859806060791, -0.7958800196647644], "name" : "POSITION"}, {"bufferView" : 2, "byteOffset" : 12, "componentType" : 5126, "count" : 1212, "type" : "VEC3", "max" : [1.0000044107437134, 1.0000044107437134, 1.0000044107437134], "min" : [-1.0000044107437134, -1.0000044107437134, -1.0000044107437134], "name" : "NORMAL"}, {"bufferView" : 2, "byteOffset" : 24, "componentType" : 5126, "count" : 1212, "type" : "VEC2", "max" : [0.9827744364738464, -0.0030263662338256836], "min" : [0.0030263960361480713, -0.95404052734375], "name" : "TEXCOORD_0"}, {"bufferView" : 0, "byteOffset" : 5280, "componentType" : 5123, "count" : 198, "type" : "SCALAR", "max" : [197], "min" : [0]}, {"bufferView" : 3, "byteOffset" : 0, "componentType" : 5126, "count" : 198, "type" : "VEC3", "max" : [2.4091179370880127, 1.682698130607605, 0.5261704921722412], "min" : [-2.4220964908599854, -6.1666364669799805, -0.4263494610786438], "name" : "POSITION"}, {"bufferView" : 3, "byteOffset" : 12, "componentType" : 5126, "count" : 198, "type" : "VEC3", "max" : [1.0000044107437134, 1.2403650551107148E-08, 1.0000044107437134], "min" : [-1.0000044107437134, -1.0000044107437134, -1.0000044107437134], "name" : "NORMAL"}, {"bufferView" : 3, "byteOffset" : 24, "componentType" : 5126, "count" : 198, "type" : "VEC2", "max" : [0.9969735145568848, -0.3923335075378418], "min" : [0.16859358549118042, -0.7620127201080322], "name" : "TEXCOORD_0"}], "asset" : {"generator" : "Aspose.3D 22.1", "version" : "2.0"}, "buffers" : [{"uri" : "data:application/octet-stream;base64,", "byteLength" : 96508}], "bufferViews" : [{"buffer" : 0, "byteOffset" : 0, "byteLength" : 5676, "target" : 34963}, {"buffer" : 0, "byteOffset" : 5680, "byteLength" : 45696, "byteStride" : 32, "target" : 34962}, {"buffer" : 0, "byteOffset" : 51380, "byteLength" : 38784, "byteStride" : 32, "target" : 34962}, {"buffer" : 0, "byteOffset" : 90168, "byteLength" : 6336, "byteStride" : 32, "target" : 34962}], "materials" : [{"name" : "", "pbrMetallicRoughness" : {"baseColorFactor" : [0.3505583703517914, 0.12707479298114777, 0.04741016775369644, 1], "metallicFactor" : 0, "roughnessFactor" : 0}, "emissiveFactor" : [0, 0, 0], "alphaMode" : "OPAQUE", "doubleSided" : false}, {"name" : "", "pbrMetallicRoughness" : {"baseColorFactor" : [0.6353368163108826, 0.6353368163108826, 0.6353368163108826, 1], "metallicFactor" : 0, "roughnessFactor" : 0}, "emissiveFactor" : [0, 0, 0], "alphaMode" : "OPAQUE", "doubleSided" : false}, {"name" : "", "pbrMetallicRoughness" : {"baseColorFactor" : [0.34115174412727356, 0.026578301563858986, 0.013850972056388855, 1], "metallicFactor" : 0, "roughnessFactor" : 0}, "emissiveFactor" : [0, 0, 0], "alphaMode" : "OPAQUE", "doubleSided" : false}], "meshes" : [{"primitives" : [{"attributes" : {"POSITION" : 1, "NORMAL" : 2, "TEXCOORD_0" : 3}, "indices" : 0, "material" : 0, "mode" : 4}, {"attributes" : {"POSITION" : 5, "NORMAL" : 6, "TEXCOORD_0" : 7}, "indices" : 4, "material" : 1, "mode" : 4}, {"attributes" : {"POSITION" : 9, "NORMAL" : 10, "TEXCOORD_0" : 11}, "indices" : 8, "material" : 2, "mode" : 4}], "name" : "Cube.026"}], "nodes" : [{"matrix" : [100, 0, 0, 0, 0, -1.6292067961387602E-05, -99.99999999999868, 0, 0, 99.99999999999868, -1.6292067961387602E-05, 0, 0, 0, 0, 1], "mesh" : 0, "name" : "Bed single"}], "scene" : 0, "scenes" : [{"nodes" : [0]}]}