{"accessors" : [{"bufferView" : 0, "byteOffset" : 0, "componentType" : 5123, "count" : 666, "type" : "SCALAR", "max" : [665], "min" : [0]}, {"bufferView" : 1, "byteOffset" : 0, "componentType" : 5126, "count" : 666, "type" : "VEC3", "max" : [2.3437564373016357, 1.3907541036605835, 0.20357735455036163], "min" : [-2.3470399379730225, -1.6595776081085205, -4.1742167472839355], "name" : "POSITION"}, {"bufferView" : 1, "byteOffset" : 12, "componentType" : 5126, "count" : 666, "type" : "VEC3", "max" : [1.0000044107437134, 1.0000044107437134, 1.0000044107437134], "min" : [-1.0000044107437134, -1.0000044107437134, -1.0000044107437134], "name" : "NORMAL"}, {"bufferView" : 1, "byteOffset" : 24, "componentType" : 5126, "count" : 666, "type" : "VEC2", "max" : [0.9863420724868774, -0.003754556179046631], "min" : [0.003754526376724243, -0.9731830358505249], "name" : "TEXCOORD_0"}, {"bufferView" : 0, "byteOffset" : 1332, "componentType" : 5123, "count" : 528, "type" : "SCALAR", "max" : [527], "min" : [0]}, {"bufferView" : 2, "byteOffset" : 0, "componentType" : 5126, "count" : 528, "type" : "VEC3", "max" : [2.3698313236236572, 1.395821213722229, 0.34594470262527466], "min" : [-2.3730409145355225, -1.7499816417694092, -0.26546555757522583], "name" : "POSITION"}, {"bufferView" : 2, "byteOffset" : 12, "componentType" : 5126, "count" : 528, "type" : "VEC3", "max" : [1.0000044107437134, 1.0000044107437134, 1.0000044107437134], "min" : [-1.0000044107437134, -1.0000044107437134, -1.0000044107437134], "name" : "NORMAL"}, {"bufferView" : 2, "byteOffset" : 24, "componentType" : 5126, "count" : 528, "type" : "VEC2", "max" : [0.9842368364334106, -0.003754556179046631], "min" : [0.0037545422092080116, -0.983686089515686], "name" : "TEXCOORD_0"}, {"bufferView" : 0, "byteOffset" : 2388, "componentType" : 5123, "count" : 3078, "type" : "SCALAR", "max" : [3077], "min" : [0]}, {"bufferView" : 3, "byteOffset" : 0, "componentType" : 5126, "count" : 3078, "type" : "VEC3", "max" : [1.7067701816558838, 1.0961037874221802, 0.8904673457145691], "min" : [-1.7099807262420654, -1.086920976638794, -0.2556450366973877], "name" : "POSITION"}, {"bufferView" : 3, "byteOffset" : 12, "componentType" : 5126, "count" : 3078, "type" : "VEC3", "max" : [1.0000044107437134, 1.0000044107437134, 1.0000044107437134], "min" : [-1.0000044107437134, -1.0000044107437134, -1.0000044107437134], "name" : "NORMAL"}, {"bufferView" : 3, "byteOffset" : 24, "componentType" : 5126, "count" : 3078, "type" : "VEC2", "max" : [0.9852938055992126, -0.23374678194522858], "min" : [0.04143446683883667, -0.9855458736419678], "name" : "TEXCOORD_0"}, {"bufferView" : 0, "byteOffset" : 8544, "componentType" : 5123, "count" : 132, "type" : "SCALAR", "max" : [131], "min" : [0]}, {"bufferView" : 4, "byteOffset" : 0, "componentType" : 5126, "count" : 132, "type" : "VEC3", "max" : [-0.00419306755065918, -1.5556364059448242, 0.04387998580932617], "min" : [-2.2138843536376953, -1.627929925918579, -4.019713878631592], "name" : "POSITION"}, {"bufferView" : 4, "byteOffset" : 12, "componentType" : 5126, "count" : 132, "type" : "VEC3", "max" : [1.0000044107437134, 1.0000044107437134, 1.0000042915344238], "min" : [-1.0000044107437134, -1.0000044107437134, -1.0000042915344238], "name" : "NORMAL"}, {"bufferView" : 4, "byteOffset" : 24, "componentType" : 5126, "count" : 132, "type" : "VEC2", "max" : [0.992336630821228, -0.003754556179046631], "min" : [0.8388535380363464, -0.9854500889778137], "name" : "TEXCOORD_0"}, {"bufferView" : 0, "byteOffset" : 8808, "componentType" : 5123, "count" : 516, "type" : "SCALAR", "max" : [515], "min" : [0]}, {"bufferView" : 5, "byteOffset" : 0, "componentType" : 5126, "count" : 516, "type" : "VEC3", "max" : [-0.20751182734966278, -1.5766432285308838, -0.10048937797546387], "min" : [-0.3941414952278137, -1.8620082139968872, -0.7518703937530518], "name" : "POSITION"}, {"bufferView" : 5, "byteOffset" : 12, "componentType" : 5126, "count" : 516, "type" : "VEC3", "max" : [1.0000044107437134, 1.0000044107437134, 1.0000044107437134], "min" : [-1.0000044107437134, -1.0000044107437134, -1.0000044107437134], "name" : "NORMAL"}, {"bufferView" : 5, "byteOffset" : 24, "componentType" : 5126, "count" : 516, "type" : "VEC2", "max" : [0.9833486080169678, -0.41565003991127014], "min" : [0.14237207174301147, -0.9822919368743896], "name" : "TEXCOORD_0"}, {"bufferView" : 0, "byteOffset" : 9840, "componentType" : 5123, "count" : 132, "type" : "SCALAR", "max" : [131], "min" : [0]}, {"bufferView" : 6, "byteOffset" : 0, "componentType" : 5126, "count" : 132, "type" : "VEC3", "max" : [2.1943106651306152, -1.5556364059448242, 0.04387998580932617], "min" : [-0.015381098724901676, -1.627929925918579, -4.019713878631592], "name" : "POSITION"}, {"bufferView" : 6, "byteOffset" : 12, "componentType" : 5126, "count" : 132, "type" : "VEC3", "max" : [1.0000044107437134, 1.0000044107437134, 1.0000042915344238], "min" : [-1.0000044107437134, -1.0000044107437134, -1.0000042915344238], "name" : "NORMAL"}, {"bufferView" : 6, "byteOffset" : 24, "componentType" : 5126, "count" : 132, "type" : "VEC2", "max" : [0.9910454154014587, -0.23374682664871216], "min" : [0.21357282996177673, -0.9962455034255981], "name" : "TEXCOORD_0"}, {"bufferView" : 0, "byteOffset" : 10104, "componentType" : 5123, "count" : 516, "type" : "SCALAR", "max" : [515], "min" : [0]}, {"bufferView" : 7, "byteOffset" : 0, "componentType" : 5126, "count" : 516, "type" : "VEC3", "max" : [0.34880656003952026, -1.5766432285308838, -0.10048937797546387], "min" : [0.16217707097530365, -1.8620082139968872, -0.7518703937530518], "name" : "POSITION"}, {"bufferView" : 7, "byteOffset" : 12, "componentType" : 5126, "count" : 516, "type" : "VEC3", "max" : [1.0000044107437134, 1.0000044107437134, 1.0000044107437134], "min" : [-1.0000044107437134, -1.0000044107437134, -1.0000044107437134], "name" : "NORMAL"}, {"bufferView" : 7, "byteOffset" : 24, "componentType" : 5126, "count" : 516, "type" : "VEC2", "max" : [0.979681670665741, -0.2085248827934265], "min" : [0.004572749137878418, -0.9829220175743103], "name" : "TEXCOORD_0"}], "asset" : {"generator" : "Aspose.3D 22.1", "version" : "2.0"}, "buffers" : [{"uri" : "data:application/octet-stream;base64,", "byteLength" : 189344}], "bufferViews" : [{"buffer" : 0, "byteOffset" : 0, "byteLength" : 11136, "target" : 34963}, {"buffer" : 0, "byteOffset" : 11140, "byteLength" : 21312, "byteStride" : 32, "target" : 34962}, {"buffer" : 0, "byteOffset" : 32456, "byteLength" : 16896, "byteStride" : 32, "target" : 34962}, {"buffer" : 0, "byteOffset" : 49356, "byteLength" : 98496, "byteStride" : 32, "target" : 34962}, {"buffer" : 0, "byteOffset" : 147856, "byteLength" : 4224, "byteStride" : 32, "target" : 34962}, {"buffer" : 0, "byteOffset" : 152084, "byteLength" : 16512, "byteStride" : 32, "target" : 34962}, {"buffer" : 0, "byteOffset" : 168600, "byteLength" : 4224, "byteStride" : 32, "target" : 34962}, {"buffer" : 0, "byteOffset" : 172828, "byteLength" : 16512, "byteStride" : 32, "target" : 34962}], "materials" : [{"name" : "", "pbrMetallicRoughness" : {"baseColorFactor" : [0.6353368163108826, 0.6353368163108826, 0.6353368163108826, 1], "metallicFactor" : 0, "roughnessFactor" : 0}, "emissiveFactor" : [0, 0, 0], "alphaMode" : "OPAQUE", "doubleSided" : false}, {"name" : "", "pbrMetallicRoughness" : {"baseColorFactor" : [0.08696522563695908, 0.08696522563695908, 0.08696522563695908, 1], "metallicFactor" : 0, "roughnessFactor" : 0}, "emissiveFactor" : [0, 0, 0], "alphaMode" : "OPAQUE", "doubleSided" : false}, {"name" : "", "pbrMetallicRoughness" : {"baseColorFactor" : [0.2600274980068207, 0.2600274980068207, 0.2600274980068207, 1], "metallicFactor" : 0, "roughnessFactor" : 0}, "emissiveFactor" : [0, 0, 0], "alphaMode" : "OPAQUE", "doubleSided" : false}, {"name" : "", "pbrMetallicRoughness" : {"baseColorFactor" : [0.6353368163108826, 0.6353368163108826, 0.6353368163108826, 1], "metallicFactor" : 0, "roughnessFactor" : 0}, "emissiveFactor" : [0, 0, 0], "alphaMode" : "OPAQUE", "doubleSided" : false}, {"name" : "", "pbrMetallicRoughness" : {"baseColorFactor" : [0.08696522563695908, 0.08696522563695908, 0.08696522563695908, 1], "metallicFactor" : 0, "roughnessFactor" : 0}, "emissiveFactor" : [0, 0, 0], "alphaMode" : "OPAQUE", "doubleSided" : false}, {"name" : "", "pbrMetallicRoughness" : {"baseColorFactor" : [0.6353368163108826, 0.6353368163108826, 0.6353368163108826, 1], "metallicFactor" : 0, "roughnessFactor" : 0}, "emissiveFactor" : [0, 0, 0], "alphaMode" : "OPAQUE", "doubleSided" : false}, {"name" : "", "pbrMetallicRoughness" : {"baseColorFactor" : [0.08696522563695908, 0.08696522563695908, 0.08696522563695908, 1], "metallicFactor" : 0, "roughnessFactor" : 0}, "emissiveFactor" : [0, 0, 0], "alphaMode" : "OPAQUE", "doubleSided" : false}], "meshes" : [{"primitives" : [{"attributes" : {"POSITION" : 1, "NORMAL" : 2, "TEXCOORD_0" : 3}, "indices" : 0, "material" : 0, "mode" : 4}, {"attributes" : {"POSITION" : 5, "NORMAL" : 6, "TEXCOORD_0" : 7}, "indices" : 4, "material" : 1, "mode" : 4}, {"attributes" : {"POSITION" : 9, "NORMAL" : 10, "TEXCOORD_0" : 11}, "indices" : 8, "material" : 2, "mode" : 4}], "name" : "Cube.007"}, {"primitives" : [{"attributes" : {"POSITION" : 13, "NORMAL" : 14, "TEXCOORD_0" : 15}, "indices" : 12, "material" : 3, "mode" : 4}, {"attributes" : {"POSITION" : 17, "NORMAL" : 18, "TEXCOORD_0" : 19}, "indices" : 16, "material" : 4, "mode" : 4}], "name" : "Cube.123"}, {"primitives" : [{"attributes" : {"POSITION" : 21, "NORMAL" : 22, "TEXCOORD_0" : 23}, "indices" : 20, "material" : 5, "mode" : 4}, {"attributes" : {"POSITION" : 25, "NORMAL" : 26, "TEXCOORD_0" : 27}, "indices" : 24, "material" : 6, "mode" : 4}], "name" : "Cube.124"}], "nodes" : [{"matrix" : [100, 0, 0, 0, 0, -1.6292067961387602E-05, -99.99999999999868, 0, 0, 99.99999999999868, -1.6292067961387602E-05, 0, 0, 0, 0, 1], "mesh" : 0, "name" : "Cupboard sink"}, {"matrix" : [100, 0, 0, 0, 0, -1.6292067961387602E-05, -99.99999999999868, 0, 0, 99.99999999999868, -1.6292067961387602E-05, 0, 0, 0, 0, 1], "mesh" : 1, "name" : "Cupboard sink.001"}, {"matrix" : [100, 0, 0, 0, 0, -1.6292067961387602E-05, -99.99999999999868, 0, 0, 99.99999999999868, -1.6292067961387602E-05, 0, 0, 0, 0, 1], "mesh" : 2, "name" : "Cupboard sink.002"}], "scene" : 0, "scenes" : [{"nodes" : [0, 1, 2]}]}