{"accessors" : [{"bufferView" : 0, "byteOffset" : 0, "componentType" : 5123, "count" : 2256, "type" : "SCALAR", "max" : [2255], "min" : [0]}, {"bufferView" : 1, "byteOffset" : 0, "componentType" : 5126, "count" : 2256, "type" : "VEC3", "max" : [3.1083974838256836, 1.960078239440918, 2.5840420722961426], "min" : [-3.056572914123535, -2.412421226501465, -1.2620182037353516], "name" : "POSITION"}, {"bufferView" : 1, "byteOffset" : 12, "componentType" : 5126, "count" : 2256, "type" : "VEC3", "max" : [1.0000044107437134, 1.0000044107437134, 1.0000044107437134], "min" : [-1.0000044107437134, -1.0000044107437134, -1.0000044107437134], "name" : "NORMAL"}, {"bufferView" : 1, "byteOffset" : 24, "componentType" : 5126, "count" : 2256, "type" : "VEC2", "max" : [0.9788388609886169, -0.0019678473472595215], "min" : [0.0026369281113147736, -0.988527774810791], "name" : "TEXCOORD_0"}, {"bufferView" : 0, "byteOffset" : 4512, "componentType" : 5123, "count" : 276, "type" : "SCALAR", "max" : [275], "min" : [0]}, {"bufferView" : 2, "byteOffset" : 0, "componentType" : 5126, "count" : 276, "type" : "VEC3", "max" : [2.019327402114868, 1.867757797241211, -0.9081858396530151], "min" : [-2.0455353260040283, -2.224125862121582, -1.769759178161621], "name" : "POSITION"}, {"bufferView" : 2, "byteOffset" : 12, "componentType" : 5126, "count" : 276, "type" : "VEC3", "max" : [1.0000042915344238, 1.0000042915344238, 1.0000044107437134], "min" : [-1.0000042915344238, -1.0000042915344238, -1.0000044107437134], "name" : "NORMAL"}, {"bufferView" : 2, "byteOffset" : 24, "componentType" : 5126, "count" : 276, "type" : "VEC2", "max" : [0.9967136383056641, -0.006551817059516907], "min" : [0.0064986348152160645, -0.8801943063735962], "name" : "TEXCOORD_0"}], "asset" : {"generator" : "Aspose.3D 22.1", "version" : "2.0"}, "buffers" : [{"uri" : "data:application/octet-stream;base64,", "byteLength" : 86100}], "bufferViews" : [{"buffer" : 0, "byteOffset" : 0, "byteLength" : 5064, "target" : 34963}, {"buffer" : 0, "byteOffset" : 5068, "byteLength" : 72192, "byteStride" : 32, "target" : 34962}, {"buffer" : 0, "byteOffset" : 77264, "byteLength" : 8832, "byteStride" : 32, "target" : 34962}], "materials" : [{"name" : "", "pbrMetallicRoughness" : {"baseColorFactor" : [0.34115174412727356, 0.026578301563858986, 0.013850972056388855, 1], "metallicFactor" : 0, "roughnessFactor" : 0}, "emissiveFactor" : [0, 0, 0], "alphaMode" : "OPAQUE", "doubleSided" : false}, {"name" : "", "pbrMetallicRoughness" : {"baseColorFactor" : [0.3505583703517914, 0.12707479298114777, 0.04741016775369644, 1], "metallicFactor" : 0, "roughnessFactor" : 0}, "emissiveFactor" : [0, 0, 0], "alphaMode" : "OPAQUE", "doubleSided" : false}], "meshes" : [{"primitives" : [{"attributes" : {"POSITION" : 1, "NORMAL" : 2, "TEXCOORD_0" : 3}, "indices" : 0, "material" : 0, "mode" : 4}, {"attributes" : {"POSITION" : 5, "NORMAL" : 6, "TEXCOORD_0" : 7}, "indices" : 4, "material" : 1, "mode" : 4}], "name" : "Cube.028"}], "nodes" : [{"matrix" : [100, 0, 0, 0, 0, -1.6292067961387602E-05, -99.99999999999868, 0, 0, 99.99999999999868, -1.6292067961387602E-05, 0, 0, 0, 0, 1], "mesh" : 0, "name" : "Sofa B"}], "scene" : 0, "scenes" : [{"nodes" : [0]}]}