{"accessors" : [{"bufferView" : 0, "byteOffset" : 0, "componentType" : 5123, "count" : 1179, "type" : "SCALAR", "max" : [1178], "min" : [0]}, {"bufferView" : 1, "byteOffset" : 0, "componentType" : 5126, "count" : 1179, "type" : "VEC3", "max" : [1.1981279850006104, 3.115288257598877, 1.3341400623321533], "min" : [-1.6260693073272705, -1.3825795650482178, -2.5600385665893555], "name" : "POSITION"}, {"bufferView" : 1, "byteOffset" : 12, "componentType" : 5126, "count" : 1179, "type" : "VEC3", "max" : [1.0000044107437134, 0.9995291829109192, 0.9995291829109192], "min" : [-1.0000044107437134, -0.9995306730270386, -0.9995291233062744], "name" : "NORMAL"}, {"bufferView" : 1, "byteOffset" : 24, "componentType" : 5126, "count" : 1179, "type" : "VEC2", "max" : [0.9907379746437073, -0.0027587413787841797], "min" : [0.0027587413787841797, -0.9490756988525391], "name" : "TEXCOORD_0"}, {"bufferView" : 0, "byteOffset" : 2360, "componentType" : 5123, "count" : 21, "type" : "SCALAR", "max" : [20], "min" : [0]}, {"bufferView" : 2, "byteOffset" : 0, "componentType" : 5126, "count" : 21, "type" : "VEC3", "max" : [0.3566890358924866, 1.3961349725723267, -0.7186304330825806], "min" : [-0.8479757905006409, 1.359493613243103, -1.8318980932235718], "name" : "POSITION"}, {"bufferView" : 2, "byteOffset" : 12, "componentType" : 5126, "count" : 21, "type" : "VEC3", "max" : [-2.6389375307189766E-06, -0.9994409084320068, 0.033564455807209015], "min" : [-2.6389375307189766E-06, -0.9994409084320068, 0.033564455807209015], "name" : "NORMAL"}, {"bufferView" : 2, "byteOffset" : 24, "componentType" : 5126, "count" : 21, "type" : "VEC2", "max" : [0.7956395149230957, -0.24122825264930725], "min" : [0.6965997219085693, -0.3480273485183716], "name" : "TEXCOORD_0"}, {"bufferView" : 0, "byteOffset" : 2404, "componentType" : 5123, "count" : 204, "type" : "SCALAR", "max" : [203], "min" : [0]}, {"bufferView" : 3, "byteOffset" : 0, "componentType" : 5126, "count" : 204, "type" : "VEC3", "max" : [0.9712187647819519, 0.7138314247131348, 0.2142544388771057], "min" : [-1.4657082557678223, -1.9551504850387573, -0.09413532167673111], "name" : "POSITION"}, {"bufferView" : 3, "byteOffset" : 12, "componentType" : 5126, "count" : 204, "type" : "VEC3", "max" : [0.9737454652786255, 1.0000044107437134, 0.9999985098838806], "min" : [-0.9647953510284424, -0.9049546718597412, -0.9999983310699463], "name" : "NORMAL"}, {"bufferView" : 3, "byteOffset" : 24, "componentType" : 5126, "count" : 204, "type" : "VEC2", "max" : [0.9972411394119263, -0.0027587413787841797], "min" : [0.5795629620552063, -0.9871572256088257], "name" : "TEXCOORD_0"}, {"bufferView" : 0, "byteOffset" : 2812, "componentType" : 5123, "count" : 324, "type" : "SCALAR", "max" : [323], "min" : [0]}, {"bufferView" : 4, "byteOffset" : 0, "componentType" : 5126, "count" : 324, "type" : "VEC3", "max" : [1.3363415002822876, -0.948106050491333, 0.31669527292251587], "min" : [0.9045965075492859, -1.0727860927581787, 0.10428667068481445], "name" : "POSITION"}, {"bufferView" : 4, "byteOffset" : 12, "componentType" : 5126, "count" : 324, "type" : "VEC3", "max" : [1.0000044107437134, 0.9995291829109192, 0.9995291233062744], "min" : [-1.0000044107437134, -0.9995291829109192, -0.9995291233062744], "name" : "NORMAL"}, {"bufferView" : 4, "byteOffset" : 24, "componentType" : 5126, "count" : 324, "type" : "VEC2", "max" : [0.8174919486045837, -0.35354480147361755], "min" : [0.24190106987953186, -0.649924635887146], "name" : "TEXCOORD_0"}], "asset" : {"generator" : "Aspose.3D 22.1", "version" : "2.0"}, "buffers" : [{"uri" : "data:application/octet-stream;base64,", "byteLength" : 58776}], "bufferViews" : [{"buffer" : 0, "byteOffset" : 0, "byteLength" : 3460, "target" : 34963}, {"buffer" : 0, "byteOffset" : 3464, "byteLength" : 37728, "byteStride" : 32, "target" : 34962}, {"buffer" : 0, "byteOffset" : 41196, "byteLength" : 672, "byteStride" : 32, "target" : 34962}, {"buffer" : 0, "byteOffset" : 41872, "byteLength" : 6528, "byteStride" : 32, "target" : 34962}, {"buffer" : 0, "byteOffset" : 48404, "byteLength" : 10368, "byteStride" : 32, "target" : 34962}], "materials" : [{"name" : "", "pbrMetallicRoughness" : {"baseColorFactor" : [0.6353368163108826, 0.6353368163108826, 0.6353368163108826, 1], "metallicFactor" : 0, "roughnessFactor" : 0}, "emissiveFactor" : [0, 0, 0], "alphaMode" : "OPAQUE", "doubleSided" : false}, {"name" : "", "pbrMetallicRoughness" : {"baseColorFactor" : [0.04154860973358154, 0.23032249510288239, 0.23441897332668304, 1], "metallicFactor" : 0, "roughnessFactor" : 0}, "emissiveFactor" : [0, 0, 0], "alphaMode" : "OPAQUE", "doubleSided" : false}, {"name" : "", "pbrMetallicRoughness" : {"baseColorFactor" : [0.3505583703517914, 0.12707479298114777, 0.04741016775369644, 1], "metallicFactor" : 0, "roughnessFactor" : 0}, "emissiveFactor" : [0, 0, 0], "alphaMode" : "OPAQUE", "doubleSided" : false}, {"name" : "", "pbrMetallicRoughness" : {"baseColorFactor" : [0.2600274980068207, 0.2600274980068207, 0.2600274980068207, 1], "metallicFactor" : 0, "roughnessFactor" : 0}, "emissiveFactor" : [0, 0, 0], "alphaMode" : "OPAQUE", "doubleSided" : false}], "meshes" : [{"primitives" : [{"attributes" : {"POSITION" : 1, "NORMAL" : 2, "TEXCOORD_0" : 3}, "indices" : 0, "material" : 0, "mode" : 4}, {"attributes" : {"POSITION" : 5, "NORMAL" : 6, "TEXCOORD_0" : 7}, "indices" : 4, "material" : 1, "mode" : 4}, {"attributes" : {"POSITION" : 9, "NORMAL" : 10, "TEXCOORD_0" : 11}, "indices" : 8, "material" : 2, "mode" : 4}, {"attributes" : {"POSITION" : 13, "NORMAL" : 14, "TEXCOORD_0" : 15}, "indices" : 12, "material" : 3, "mode" : 4}], "name" : "Cylinder.026"}], "nodes" : [{"matrix" : [100, 0, 0, 0, 0, -99.95247693723555, -3.082588865125366, 0, 0, 3.082588865125366, -99.95247693723555, 0, 0, 0, 0, 1], "mesh" : 0, "name" : "Toilet"}], "scene" : 0, "scenes" : [{"nodes" : [0]}]}